<svg width="42" height="42" viewBox="0 0 42 42" fill="none" xmlns="http://www.w3.org/2000/svg">
<g id="iconspace_Headset A_25px">
<path id="Path" fill-rule="evenodd" clip-rule="evenodd" d="M38.64 26.3279C37.9584 25.4855 37.0995 24.7926 36.12 24.3059V21C36.12 12.4175 29.5825 5.93089 21 5.93089C12.4175 5.93089 5.87999 12.4175 5.87999 21V24.3059C4.90052 24.7926 4.04159 25.4855 3.35999 26.3279V21C3.35999 11.0258 11.0257 3.41089 21 3.41089C30.9742 3.41089 38.64 11.0258 38.64 21V26.3279ZM8.47428 25.2494C8.42551 25.5055 8.39999 25.7698 8.39999 26.04V36.12C8.39999 36.3903 8.42551 36.6546 8.47428 36.9106C5.58862 36.5354 3.35999 34.068 3.35999 31.08C3.35999 28.0921 5.58862 25.6247 8.47428 25.2494ZM33.6 36.12C33.6 36.3903 33.5745 36.6546 33.5257 36.9106C36.4113 36.5354 38.64 34.068 38.64 31.08C38.64 28.0921 36.4113 25.6247 33.5257 25.2494C33.5745 25.5055 33.6 25.7698 33.6 26.04V36.12Z" fill="#3B5AFB"/>
<path id="Path_2" fill-rule="evenodd" clip-rule="evenodd" d="M14.28 23.52H12.6C11.2082 23.52 10.08 24.6483 10.08 26.04V36.12C10.08 37.5118 11.2082 38.64 12.6 38.64H14.28C15.6717 38.64 16.8 37.5118 16.8 36.12V26.04C16.8 24.6483 15.6717 23.52 14.28 23.52ZM29.4 23.52H27.72C26.3282 23.52 25.2 24.6483 25.2 26.04V36.12C25.2 37.5118 26.3282 38.64 27.72 38.64H29.4C30.7917 38.64 31.92 37.5118 31.92 36.12V26.04C31.92 24.6483 30.7917 23.52 29.4 23.52Z" fill="#44D5E9"/>
</g>
</svg>
