<svg width="187" height="62" viewBox="0 0 187 62" fill="none" xmlns="http://www.w3.org/2000/svg">
<rect width="187" height="62" fill="white"/>
<path fill-rule="evenodd" clip-rule="evenodd" d="M137.228 33.5279C138.637 32.8896 140.03 32.436 141.93 32.436C143.757 32.436 145.221 32.9349 146.182 33.8907C147.115 34.8152 147.574 36.1047 147.572 37.7507V45.6703H145.256V44.1734C144.324 45.14 142.92 45.9381 140.933 45.9381H140.924C139.693 45.9381 138.466 45.5936 137.533 44.9013C136.598 44.2123 135.965 43.1539 135.967 41.7931V41.7445C135.966 40.3319 136.556 39.2184 137.565 38.4915C138.572 37.7625 139.973 37.4051 141.61 37.4051C143.11 37.4029 144.209 37.5919 145.256 37.8695V37.7744C145.255 36.6987 144.931 35.9211 144.348 35.3973C143.764 34.8735 142.886 34.5906 141.733 34.5906C140.275 34.5917 139.139 34.9427 137.98 35.4708L137.757 35.5723L137.037 33.6143L137.228 33.5279ZM56.5764 45.9371C61.3727 45.9371 64.4809 43.5503 64.4809 38.1038V28.1765H59.7332V38.2723C59.7332 40.6343 58.5042 41.7197 56.625 41.7197C54.7447 41.7197 53.5157 40.5608 53.5157 38.1524V28.1765H48.768V38.2248C48.768 43.5265 51.7801 45.9371 56.5764 45.9371ZM66.9876 45.6703H71.5668L71.5657 38.6589C71.5657 37.2128 72.3854 36.4417 73.4935 36.4417C74.58 36.4417 75.3252 37.2117 75.3252 38.6589V45.6714H79.9044V37.188C79.9044 34.2234 78.2412 32.3917 75.4699 32.3917C73.6145 32.3917 72.4092 33.3799 71.5668 34.4642V32.6325H66.9876V45.6703ZM82.3625 45.6714H86.9417V32.6336H82.3625V45.6714ZM86.9417 31.1475H82.3625V28.1765H86.9417V31.1475ZM95.7847 36.2484C94.0999 36.2484 93.0631 37.526 93.0631 39.1406C93.0631 40.779 94.2187 42.0804 95.8322 42.0804C97.5203 42.0804 98.556 40.8027 98.556 39.1881C98.556 37.5487 97.4004 36.2484 95.7847 36.2484ZM88.6027 39.1881C88.6027 42.9239 91.6159 45.9371 95.7847 45.9371C99.9773 45.9371 103.014 42.8753 103.014 39.1406C103.014 35.4049 100.002 32.3917 95.8322 32.3917C91.6397 32.3917 88.6027 35.4535 88.6027 39.1881ZM109.14 45.6703H104.561V32.6325H109.14V34.4642C109.982 33.3799 111.19 32.3917 113.045 32.3917C115.815 32.3917 117.479 34.2234 117.479 37.188V45.6714H112.899V38.6589C112.899 37.2117 112.153 36.4417 111.069 36.4417C109.96 36.4417 109.141 37.2128 109.141 38.6589L109.14 45.6703ZM128.379 43.4919C130.927 43.4736 132.363 42.4152 132.369 40.6731V40.6245C132.363 39.7627 132.02 39.1244 131.313 38.6568C130.603 38.1924 129.504 37.9256 128.037 37.9267H122.846V43.4919H128.379ZM122.846 30.3537H127.839C130.236 30.3743 131.402 31.3711 131.413 32.9047V32.9533C131.41 33.8918 131.045 34.569 130.405 35.0431C129.763 35.5161 128.824 35.7732 127.693 35.7721H122.846V30.3537ZM133.826 32.6855C133.831 34.7234 132.698 35.9255 131.479 36.5897H131.478C133.308 37.2517 134.786 38.498 134.78 40.7466V40.7952C134.782 42.3201 134.124 43.5632 132.982 44.397C131.842 45.2318 130.239 45.6714 128.328 45.6714H120.48V28.1754H128.012C130.013 28.1754 131.62 28.7467 132.659 29.7533C133.421 30.5181 133.841 31.5578 133.826 32.6369V32.6855ZM145.281 40.82C145.279 41.7445 144.849 42.521 144.133 43.0837C143.417 43.6453 142.41 43.9801 141.293 43.9801C140.474 43.9801 139.723 43.7565 139.19 43.3623C138.656 42.966 138.333 42.4152 138.331 41.6959V41.6462C138.333 40.3005 139.503 39.3566 141.807 39.3393C143.237 39.3393 144.384 39.5726 145.281 39.8199V40.8189V40.82ZM156.313 32.3636C154.388 32.3593 153.075 33.2017 152.202 34.3206V32.6315H149.861V45.6714H152.202V38.2388C152.211 35.9816 153.709 34.5279 155.774 34.5171C157.891 34.5366 159.03 35.8337 159.052 38.0919V45.6714H161.393V37.6286C161.393 36.0885 160.93 34.7666 160.053 33.8324C159.179 32.8961 157.893 32.3615 156.313 32.3636ZM175.426 32.6315L169.868 38.282L175.516 45.6703H172.693L168.249 39.9182L165.923 42.251V45.6714H163.584V28.1754H165.923V39.3825L172.438 32.6315H175.426Z" fill="#3142A0"/>
<path d="M35.6482 22.7073V35.7645C35.6482 46.5105 25.9519 50.5692 17.0948 49.2526C20.202 48.4621 23.0726 46.3766 23.0726 40.6969V34.7094C23.0726 29.0599 24.8395 23.6502 35.6482 22.7073Z" fill="#3142A0"/>
<path d="M6.67068 13.2044V35.9362C6.67068 46.2481 12.8494 47.7946 14.8636 48.1143C16.9782 48.4491 19.6771 47.4523 20.8532 45.6703C19.379 44.7804 19.2462 41.7834 19.2462 38.255V24.8014C19.2462 16.1193 13.0924 13.2044 6.67068 13.2044Z" fill="#3142A0"/>
<path fill-rule="evenodd" clip-rule="evenodd" d="M176.88 34.3422V34.353C176.88 35.3023 177.636 36.0928 178.616 36.0928C179.579 36.0869 180.356 35.3047 180.355 34.3422V34.3324C180.355 33.3831 179.596 32.5936 178.616 32.5936C177.648 32.5936 176.88 33.3939 176.88 34.3422ZM180.156 34.3422V34.3324C180.156 33.4836 179.497 32.7848 178.616 32.7848C178.205 32.7859 177.812 32.951 177.523 33.2434C177.235 33.5357 177.074 33.9313 177.078 34.3422V34.353C177.078 35.2018 177.736 35.9017 178.616 35.9017C179.028 35.9005 179.422 35.7352 179.711 35.4425C180 35.1497 180.16 34.7536 180.156 34.3422ZM178.736 33.4242H177.937V35.1921H178.278V34.583H178.647L179.066 35.1921H179.476L179.006 34.5225C179.247 34.4523 179.418 34.273 179.418 33.9836C179.418 33.6142 179.127 33.4242 178.736 33.4242ZM179.066 34.0138C179.066 34.1812 178.936 34.3022 178.706 34.3022H178.278V33.7222H178.706C178.936 33.7222 179.066 33.8238 179.066 34.0138Z" fill="#3142A0"/>
</svg>
