<svg width="18" height="18" viewBox="0 0 18 18" fill="none" xmlns="http://www.w3.org/2000/svg">
<path fill-rule="evenodd" clip-rule="evenodd" d="M9 0C4.02944 0 0 4.02944 0 9C0 13.9706 4.02944 18 9 18C13.9706 18 18 13.9706 18 9C18 6.61305 17.0518 4.32387 15.364 2.63604C13.6761 0.948212 11.3869 0 9 0ZM9 16.2C5.02355 16.2 1.8 12.9764 1.8 9C1.8 5.02355 5.02355 1.8 9 1.8C12.9764 1.8 16.2 5.02355 16.2 9C16.2 10.9096 15.4414 12.7409 14.0912 14.0912C12.7409 15.4414 10.9096 16.2 9 16.2ZM9.9 8.478L11.79 9.567H11.772C12.1286 9.76907 12.3036 10.1865 12.1978 10.5825C12.0919 10.9785 11.7319 11.2529 11.322 11.25C11.1643 11.2511 11.0092 11.2107 10.872 11.133L8.532 9.783L8.451 9.702L8.307 9.585C8.27181 9.54045 8.24163 9.49216 8.217 9.441C8.18767 9.39268 8.16354 9.3414 8.145 9.288C8.12052 9.23078 8.10533 9.17001 8.1 9.108V9V4.5C8.1 4.00294 8.50294 3.6 9 3.6C9.49706 3.6 9.9 4.00294 9.9 4.5V8.478Z" fill="#5E6C84"/>
</svg>
