<svg width="20" height="24" viewBox="0 0 20 24" fill="none" xmlns="http://www.w3.org/2000/svg">
<path fill-rule="evenodd" clip-rule="evenodd" d="M14.524 0C14.6776 1.40278 14.1145 2.81262 13.2778 3.82537C12.4411 4.83876 11.0679 5.62584 9.72369 5.52184C9.5405 4.14682 10.2194 2.71217 10.9947 1.81583C11.8597 0.803636 13.318 0.0484706 14.524 0ZM19.5034 17.5741C19.3597 17.516 16.3259 16.2881 16.2928 12.7285C16.2662 9.76005 18.666 8.30119 18.8719 8.17599C18.8763 8.17335 18.8797 8.1713 18.882 8.16984C17.474 6.10883 15.2812 5.8258 14.5 5.79328C13.3587 5.67763 12.2514 6.1144 11.3471 6.47108C10.773 6.69755 10.2808 6.89172 9.91359 6.89172C9.50393 6.89172 8.99778 6.69097 8.42988 6.46572C7.68629 6.1708 6.83681 5.83387 5.95941 5.85061C3.92501 5.88017 2.0507 7.03298 1.00189 8.85348C-1.10934 12.5194 0.46298 17.9502 2.52043 20.9247C3.52728 22.3789 4.72737 24.0168 6.30328 23.9571C7.00851 23.9294 7.50984 23.7159 8.0282 23.4951C8.62602 23.2405 9.2465 22.9763 10.2285 22.9763C11.1667 22.9763 11.76 23.2329 12.3304 23.4797C12.8752 23.7153 13.3991 23.942 14.1827 23.9275C15.8154 23.8974 16.8517 22.4433 17.8504 20.9837C18.9682 19.3501 19.4503 17.7668 19.5044 17.5892C19.5062 17.5833 19.5075 17.5789 19.5084 17.5762C19.5077 17.5759 19.5061 17.5752 19.5034 17.5741Z" fill="black"/>
</svg>
