<svg width="14" height="24" viewBox="0 0 14 24" fill="none" xmlns="http://www.w3.org/2000/svg">
<path d="M8.52564 0.0708008L8.51621 5.35127L8.50678 10.6317L8.07303 9.40591V9.40277L7.51041 21.1581C8.0636 22.7171 8.35905 23.55 8.3622 23.5532C8.36534 23.5563 8.67965 23.5752 9.05997 23.594C10.2104 23.6506 11.6373 23.7732 12.7217 23.9083C12.9732 23.9398 13.1869 23.9555 13.2026 23.9429C13.2183 23.9303 13.2215 18.5556 13.2183 11.9959L13.2089 0.0708008L8.52564 0.0708008Z" fill="#B1060F"/>
<path d="M0.0548859 0.0550841V11.9927C0.0548859 18.5587 0.0611721 23.9366 0.0706015 23.9461C0.0800309 23.9555 0.485495 23.9146 0.975824 23.8612C1.46615 23.8078 2.14193 23.7386 2.47824 23.7103C2.99372 23.6663 4.54014 23.5689 4.71616 23.5657C4.76959 23.5657 4.77273 23.2986 4.77902 18.5084L4.78845 13.4511L5.16248 14.5072C5.21906 14.6707 5.23792 14.721 5.29449 14.8813L5.85711 3.12907C5.73767 2.79275 5.80054 2.96877 5.66538 2.58531C5.20648 1.28719 4.81674 0.190239 4.80102 0.139949L4.76959 0.0519409H0.0548859V0.0550841Z" fill="#B1060F"/>
<path d="M0.0548859 0.0550841V6.75625L4.77587 19.2785C4.77587 18.9925 4.77587 18.8353 4.77902 18.5084L4.78845 13.4511L5.16248 14.5072C7.23695 20.3912 8.35276 23.5469 8.35905 23.5532C8.36219 23.5563 8.67651 23.5752 9.05682 23.594C10.2072 23.6506 11.6342 23.7732 12.7186 23.9083C12.97 23.9398 13.1838 23.9555 13.1995 23.9429C13.2089 23.9335 13.2152 21.2995 13.2152 17.5812L8.51935 4.07201L8.51621 5.35127L8.50678 10.6317L8.07302 9.40591C7.6487 8.20838 7.36582 7.40688 5.6591 2.58531C5.2002 1.28719 4.81045 0.190239 4.79473 0.139949L4.7633 0.0519409H0.0548859V0.0550841Z" fill="url(#paint0_radial_1_528)"/>
<path d="M0.0548859 0.0550841L4.7853 13.4606V13.4543L5.15934 14.5104C7.23695 20.3912 8.35276 23.5469 8.35905 23.5532C8.36219 23.5563 8.67651 23.5752 9.05682 23.594C10.2072 23.6506 11.6342 23.7732 12.7186 23.9083C12.9669 23.9398 13.1838 23.9555 13.1963 23.9429L8.50678 10.6286V10.6317L8.07302 9.40591C7.6487 8.20838 7.36582 7.40688 5.6591 2.58531C5.2002 1.28719 4.81045 0.190239 4.79473 0.139949L4.7633 0.0519409H2.40909L0.0548859 0.0550841Z" fill="#E50914"/>
<defs>
<radialGradient id="paint0_radial_1_528" cx="0" cy="0" r="1" gradientUnits="userSpaceOnUse" gradientTransform="translate(6.41471 11.861) rotate(-19.1007) scale(0.867345 1.45737)">
<stop/>
<stop offset="1" stop-opacity="0.01"/>
</radialGradient>
</defs>
</svg>
