<svg width="24" height="24" viewBox="0 0 24 24" fill="none" xmlns="http://www.w3.org/2000/svg">
<path d="M23.5169 12.265C23.5169 11.2785 23.4368 10.5586 23.2636 9.81201H11.9984V14.2647H18.6108C18.4776 15.3713 17.7576 17.0377 16.1578 18.1575L16.1354 18.3066L19.6972 21.0659L19.944 21.0905C22.2103 18.9974 23.5169 15.9178 23.5169 12.265Z" fill="#4285F4"/>
<path d="M11.9984 23.9968C15.2379 23.9968 17.9575 22.9303 19.944 21.0906L16.1578 18.1576C15.1446 18.8641 13.7848 19.3574 11.9984 19.3574C8.82552 19.3574 6.13256 17.2644 5.1726 14.3715L5.03189 14.3834L1.32824 17.2497L1.2798 17.3843C3.25285 21.3038 7.30566 23.9968 11.9984 23.9968Z" fill="#34A853"/>
<path d="M5.1726 14.3714C4.9193 13.6249 4.77271 12.8249 4.77271 11.9984C4.77271 11.1718 4.9193 10.3719 5.15927 9.62535L5.15256 9.46635L1.40249 6.55402L1.2798 6.61238C0.46661 8.23885 0 10.0653 0 11.9984C0 13.9315 0.46661 15.7578 1.2798 17.3843L5.1726 14.3714Z" fill="#FBBC05"/>
<path d="M11.9984 4.63935C14.2514 4.63935 15.7712 5.61255 16.6378 6.42583L20.024 3.11959C17.9443 1.18651 15.2379 0 11.9984 0C7.30566 0 3.25285 2.69296 1.2798 6.6124L5.15927 9.62538C6.13256 6.73243 8.82552 4.63935 11.9984 4.63935Z" fill="#EB4335"/>
</svg>
