<svg width="80" height="80" viewBox="0 0 80 80" fill="none" xmlns="http://www.w3.org/2000/svg">
<path fill-rule="evenodd" clip-rule="evenodd" d="M12 40.0002C12 24.5362 24.5363 12 39.9998 12L39.9995 12.0013C55.4651 12.0013 68 24.5372 68 40.0002C68 55.4648 55.4651 68 39.9998 68C24.5363 68 12 55.4648 12 40.0002ZM51.76 53.1714C52.2104 53.0629 52.5991 52.7797 52.8404 52.3843C53.3452 51.5617 53.0845 50.4884 52.2619 49.9836C44.8814 45.473 35.7325 44.4238 25.0666 46.8606C24.6151 46.9632 24.223 47.2411 23.9767 47.6332C23.7305 48.0252 23.6503 48.4991 23.7539 48.9504C23.9683 49.89 24.9035 50.4781 25.8433 50.2644C35.5897 48.0376 43.8656 48.947 50.4397 52.9627C50.8346 53.2049 51.3097 53.2799 51.76 53.1714ZM56.2675 44.7601C55.6356 45.7873 54.2915 46.1116 53.265 45.4797C45.7387 40.8535 34.266 39.5137 25.3638 42.216C24.2093 42.5647 22.9899 41.9141 22.6395 40.7615C22.2914 39.6078 22.9425 38.39 24.0953 38.0388C34.264 34.9533 46.9056 36.4479 55.5486 41.7592C56.5751 42.3912 56.8994 43.7353 56.2675 44.7605V44.7601ZM24.0327 33.5831C32.6487 30.968 47.5375 31.4609 56.5617 36.8211H56.5631C57.8035 37.56 59.4151 37.1497 60.1507 35.9052C60.506 35.3081 60.6091 34.5941 60.4372 33.9208C60.2653 33.2475 59.8326 32.6703 59.2346 32.3165C48.8448 26.1485 32.403 25.5684 22.5124 28.571C21.1284 28.9913 20.3469 30.4538 20.7668 31.838C21.186 33.2216 22.6492 34.0027 24.0327 33.5831Z" fill="#1ED760"/>
</svg>
