<svg width="162" height="52" viewBox="0 0 162 52" fill="none" xmlns="http://www.w3.org/2000/svg">
<rect width="162" height="52" fill="white"/>
<path d="M36.3668 7H37.4008C40.9907 7.07804 44.5219 8.52177 47.0582 11.0776C46.1218 12.0336 45.1658 12.9505 44.2488 13.9065C42.8246 12.6189 41.1077 11.6238 39.2348 11.2727C36.4644 10.6874 33.4793 11.2141 31.1577 12.7944C28.6214 14.4528 26.9045 17.2622 26.5338 20.2667C26.1241 23.2322 26.963 26.3538 28.8945 28.656C30.7479 30.8996 33.5769 32.3044 36.5034 32.4019C39.2348 32.558 42.0832 31.7191 44.0732 29.8071C45.634 28.4609 46.3559 26.4124 46.59 24.4223C43.3513 24.4223 40.1127 24.4419 36.8741 24.4223V20.4033H50.5115C51.2138 24.715 50.1993 29.573 46.9217 32.6555C44.7366 34.8406 41.7125 36.1283 38.63 36.3819C35.6449 36.6746 32.5624 36.1088 29.909 34.6651C26.7289 32.9677 24.1926 30.0997 22.944 26.7245C21.7734 23.6224 21.7539 20.1107 22.8464 16.9891C23.8414 14.1406 25.7534 11.6238 28.2117 9.86796C30.5724 8.13157 33.4403 7.17559 36.3668 7Z" fill="#3780FF"/>
<path d="M114.602 8.01453H118.777V35.8747C117.391 35.8747 115.987 35.8942 114.602 35.8552C114.621 26.588 114.602 17.3012 114.602 8.01453Z" fill="#38B137"/>
<path fill-rule="evenodd" clip-rule="evenodd" d="M67.29 19.2717C65.1634 17.7304 62.3735 17.1842 59.7982 17.6719C56.5595 18.2377 53.6916 20.6374 52.6771 23.7785C51.6626 26.705 52.1113 30.1387 53.9647 32.636C55.6036 34.8992 58.2959 36.2844 61.0663 36.4404C64.0904 36.6355 67.1924 35.3479 69.0849 32.9482C70.8408 30.8021 71.5041 27.8366 70.9774 25.1247C70.5677 22.7835 69.2215 20.6374 67.29 19.2717ZM57.6521 23.1152C58.3545 22.2567 59.33 21.6519 60.3835 21.3788C62.0613 20.9496 63.9148 21.4373 65.1829 22.6079C67.1534 24.4223 67.5241 27.622 66.2365 29.9436C65.4951 31.3093 64.1489 32.3434 62.6076 32.6165C60.9493 32.9482 59.1544 32.3824 57.9643 31.1728C55.8767 29.0657 55.7596 25.3783 57.6521 23.1152Z" fill="#FA3913"/>
<path fill-rule="evenodd" clip-rule="evenodd" d="M88.8485 19.9936C86.6438 17.9255 83.4247 17.1061 80.4787 17.6719C77.2986 18.2182 74.4892 20.5399 73.4161 23.5834C72.3431 26.5684 72.7528 30.0802 74.6452 32.636C76.3231 34.9577 79.113 36.3624 81.9419 36.4404C84.9075 36.577 87.912 35.2894 89.7654 32.9482C92.8285 29.2413 92.4383 23.2127 88.8485 19.9936ZM78.3326 23.0957C79.035 22.2567 80.0105 21.6519 81.064 21.3788C82.7223 20.9496 84.5758 21.4178 85.8439 22.5884C87.8339 24.4028 88.2046 27.6025 86.9365 29.9436C86.1951 31.3093 84.8294 32.3239 83.3076 32.6165C81.5908 32.9677 79.7373 32.3434 78.5472 31.0752C76.5377 28.9486 76.4597 25.3198 78.3326 23.0957Z" fill="#FCBD06"/>
<path fill-rule="evenodd" clip-rule="evenodd" d="M105.666 18.2182C103.247 17.0086 100.262 17.3988 98.0181 18.8035C95.3063 20.4619 93.5113 23.5249 93.4528 26.705C93.3358 29.5145 94.5844 32.3434 96.6915 34.1773C98.779 36.0113 101.764 36.9477 104.476 36.1868C105.725 35.8942 106.759 35.1138 107.656 34.2359C107.715 36.0503 107.715 38.0793 106.505 39.5621C105.373 41.0058 103.364 41.435 101.627 41.1228C99.8911 40.8107 98.5059 39.445 97.823 37.8452C97.3647 38.0448 96.9035 38.2332 96.4438 38.421C95.6903 38.7288 94.9407 39.0351 94.2137 39.3865C95.3843 42.1764 98.0181 44.381 101.042 44.8297C103.871 45.259 107.012 44.6151 109.061 42.5276C110.934 40.6351 111.597 37.8842 111.617 35.2894V18.0816C110.953 18.0719 110.295 18.0719 109.639 18.0719C108.983 18.0719 108.329 18.0719 107.676 18.0621C107.666 18.3353 107.666 18.6084 107.666 18.8791C107.666 19.1498 107.666 19.4181 107.656 19.6815C107.051 19.1157 106.427 18.5499 105.666 18.2182ZM98.9936 23.0762C99.7545 22.1592 100.867 21.4959 102.057 21.3008C103.676 21.0081 105.393 21.6129 106.466 22.8421C108.202 24.8321 108.417 27.9341 107.129 30.2168C106.368 31.563 104.944 32.5385 103.403 32.6946C101.764 32.8702 100.067 32.1678 99.0131 30.8997C97.1597 28.7536 97.1597 25.2613 98.9936 23.0762Z" fill="#3780FF"/>
<path fill-rule="evenodd" clip-rule="evenodd" d="M132.746 18.0231C129.741 16.872 126.132 17.6134 123.791 19.7985C120.142 23.1737 119.83 29.4559 123.069 33.2018C125.039 35.582 128.278 36.7526 131.322 36.3819C134.072 36.1283 136.628 34.5285 138.15 32.2458C137.613 31.8849 137.077 31.5288 136.54 31.1728C136.004 30.8167 135.467 30.4607 134.931 30.0997C134.502 30.646 134.053 31.2118 133.487 31.641C132.063 32.7726 130.034 32.9872 128.337 32.3824C127.127 31.9727 126.229 30.9582 125.644 29.8461C127.761 28.9682 129.873 28.0951 131.985 27.222C134.097 26.349 136.209 25.4759 138.326 24.5979C137.409 21.808 135.594 19.0961 132.746 18.0231ZM124.961 26.6855C124.942 25.5344 125.215 24.3638 125.878 23.4078C126.912 21.886 128.844 20.891 130.697 21.2227C131.848 21.3983 132.98 22.0616 133.448 23.1542C130.619 24.3442 127.791 25.5148 124.962 26.6853L124.961 26.6855Z" fill="#FA3913"/>
</svg>
