<svg width="80" height="80" viewBox="0 0 80 80" fill="none" xmlns="http://www.w3.org/2000/svg">
<path d="M12 12H68V68H12V12Z" fill="#12100E"/>
<path d="M25.3636 30.7287C25.4104 30.2668 25.2343 29.8103 24.8895 29.4995L21.3764 25.2677V24.6359H32.2835L40.7137 43.1248L48.1258 24.6359H58.5231V25.2679L55.5198 28.1475C55.2609 28.3448 55.1324 28.6693 55.1861 28.9904V50.148C55.1324 50.4691 55.2609 50.7935 55.5198 50.9909L58.4527 53.8704V54.5025H43.6998V53.8704L46.7381 50.9205C47.0368 50.6219 47.0368 50.5343 47.0368 50.078V32.9761L38.5888 54.4322H37.447L27.6117 32.9761V47.3564C27.5297 47.961 27.7305 48.5696 28.1562 49.0068L32.1078 53.8001V54.4322H20.9026V53.8004L24.8542 49.0068C25.2768 48.5689 25.4659 47.9562 25.3636 47.3564V30.7287Z" fill="white"/>
</svg>
