<svg width="42" height="42" viewBox="0 0 42 42" fill="none" xmlns="http://www.w3.org/2000/svg">
<g id="iconspace_Marketing_25px">
<path id="path" fill-rule="evenodd" clip-rule="evenodd" d="M18.1163 9.06756L15.12 9.39075V24.2222L18.2001 24.5585L30.314 28.4411C30.5617 28.5201 30.82 28.5603 31.08 28.5603C32.4717 28.5603 33.6 27.4321 33.6 26.0403V7.56072C33.6 7.29977 33.5595 7.04041 33.4798 6.7919C33.0552 5.4665 31.6366 4.73625 30.3112 5.16086L28.56 5.72186V14.28C28.56 14.744 28.1839 15.12 27.72 15.12C27.2561 15.12 26.88 14.744 26.88 14.28V6.26007L18.1163 9.06756ZM13.44 24.0387V9.57195L8.60943 10.093C5.62338 10.415 3.35999 12.9357 3.35999 15.9391V17.6652C3.35999 20.6656 5.61903 23.1847 8.60169 23.5104L13.44 24.0387Z" fill="#3B5AFB"/>
<path id="path_2" fill-rule="evenodd" clip-rule="evenodd" d="M37.8 16.8001C37.8 15.0694 36.7977 13.5653 35.28 12.6611V20.939C36.7977 20.0348 37.8 18.5307 37.8 16.8001ZM8.41936 25.1805C8.13433 25.1494 7.85444 25.1027 7.58051 25.0413L10.9539 33.6794C11.3315 34.6463 12.2633 35.2827 13.3013 35.2827H14.2413C14.3911 35.2827 14.5405 35.2694 14.6879 35.2429C16.0576 34.9962 16.9681 33.6859 16.7214 32.3162L15.5773 25.9621L8.41936 25.1805Z" fill="#44D5E9"/>
</g>
</svg>
