<svg width="42" height="42" viewBox="0 0 42 42" fill="none" xmlns="http://www.w3.org/2000/svg">
<g id="iconspace_Camera 1_25px">
<path id="Path" fill-rule="evenodd" clip-rule="evenodd" d="M12.0809 10.08L13.5412 7.16027C13.6744 6.91412 13.8905 6.5642 14.1655 6.20732C14.52 5.74726 14.8787 5.40169 15.2818 5.2051C15.4978 5.09975 15.724 5.04004 15.96 5.04004H26.04C26.276 5.04004 26.5022 5.09975 26.7182 5.2051C27.1213 5.40169 27.4799 5.74726 27.8344 6.20732C28.1094 6.5642 28.3256 6.91412 28.4713 7.18438L29.9191 10.08H32.76C36.0074 10.08 38.64 12.7126 38.64 15.96V31.08C38.64 34.3275 36.0074 36.96 32.76 36.96H9.23999C5.99255 36.96 3.35999 34.3275 3.35999 31.08V15.96C3.35999 12.7126 5.99255 10.08 9.23999 10.08H12.0809ZM10.08 18.48C11.0078 18.48 11.76 17.7279 11.76 16.8C11.76 15.8722 11.0078 15.12 10.08 15.12C9.15215 15.12 8.39999 15.8722 8.39999 16.8C8.39999 17.7279 9.15215 18.48 10.08 18.48ZM28.56 22.68C28.56 26.8553 25.1753 30.24 21 30.24C16.8247 30.24 13.44 26.8553 13.44 22.68C13.44 18.5048 16.8247 15.12 21 15.12C25.1753 15.12 28.56 18.5048 28.56 22.68Z" fill="#3B5AFB"/>
<path id="Path_2" fill-rule="evenodd" clip-rule="evenodd" d="M21 28.56C24.2474 28.56 26.88 25.9275 26.88 22.68C26.88 19.4326 24.2474 16.8 21 16.8C17.7526 16.8 15.12 19.4326 15.12 22.68C15.12 25.9275 17.7526 28.56 21 28.56Z" fill="#44D5E9"/>
</g>
</svg>
