<svg width="42" height="42" viewBox="0 0 42 42" fill="none" xmlns="http://www.w3.org/2000/svg">
<g id="iconspace_Create New 1_25px">
<path id="Path" d="M36.1786 16.1537C36.1786 15.474 36.7296 14.923 37.4093 14.923C38.089 14.923 38.64 15.474 38.64 16.1537V32.4865C38.64 35.885 35.885 38.64 32.4865 38.64H9.51349C6.11501 38.64 3.36 35.885 3.36 32.4865V9.51347C3.36 6.115 6.11501 3.35999 9.51349 3.35999H24.2929C24.9726 3.35999 25.5236 3.91099 25.5236 4.59068C25.5236 5.27038 24.9726 5.82138 24.2929 5.82138H9.51349C7.4744 5.82138 5.8214 7.47439 5.8214 9.51347V32.4865C5.8214 34.5256 7.4744 36.1786 9.51349 36.1786H32.4865C34.5256 36.1786 36.1786 34.5256 36.1786 32.4865V16.1537Z" fill="#44D5E9"/>
<path id="Path_2" fill-rule="evenodd" clip-rule="evenodd" d="M17.6553 18.1962L23.8227 24.3266L38.0519 10.0974C38.8366 9.31272 38.8366 8.04049 38.0519 7.25581L34.7446 3.9485C33.9599 3.16381 32.6877 3.16381 31.903 3.9485L17.6553 18.1962ZM22.2177 25.7238C22.3738 25.6946 22.5182 25.6218 22.6343 25.5141L16.4688 19.3855C16.3707 19.4981 16.3041 19.6352 16.2765 19.7827L15.1347 25.8855C15.0261 26.4659 15.5345 26.9742 16.1149 26.8657L22.2177 25.7238Z" fill="#3B5AFB"/>
</g>
</svg>
