<svg width="162" height="52" viewBox="0 0 162 52" fill="none" xmlns="http://www.w3.org/2000/svg">
<rect width="162" height="52" fill="white"/>
<path fill-rule="evenodd" clip-rule="evenodd" d="M32.3066 41.6616C31.11 41.8717 29.9008 41.9939 28.6716 42.1182C27.8434 42.2019 27.0062 42.2865 26.1576 42.3996L19.7273 23.566V43.2079C17.9206 43.398 16.2567 43.6454 14.5553 43.8983L14.555 43.8984L14 43.9808V8H19.341L26.6495 28.4152V8H32.3066V41.6616ZM47.2862 21.1222L47.2863 21.1222C48.6139 21.0964 49.9141 21.0711 50.8944 21.0711V26.693C48.3996 26.693 45.4833 26.693 43.375 26.7985V35.1613C44.3117 35.1016 45.2485 35.0361 46.186 34.9706H46.186C48.5543 34.8051 50.9276 34.6393 53.3188 34.5638V39.9746L37.7528 41.2047V8H53.3188V13.622H43.375V21.1766C44.4872 21.1766 45.9016 21.1491 47.2862 21.1222ZM68.3929 13.6221H74.2256L74.2259 8H56.9383V13.6221H62.7711V39.5534C64.598 39.4833 66.4954 39.4833 68.3929 39.4833V13.6221ZM83.3613 20.7902H91.0565V26.412H83.3613V39.1671H77.8443V8H93.5513V13.622H83.3613V20.7902ZM109.688 34.5866L109.688 34.5866C107.372 34.4438 105.02 34.2988 102.687 34.2477V8H97.0651V39.5534C102.195 39.6591 107.22 39.9749 112.244 40.2914V34.7396C111.399 34.6921 110.546 34.6395 109.688 34.5866ZM116.988 40.6779L117.283 40.6952C118.987 40.7953 120.777 40.9004 122.504 41.0994V8H116.988V40.6779ZM140.003 25.112L147.136 8H140.987L137.051 17.452L133.362 8H127.319L133.854 24.901L126.616 41.3805C127.459 41.4967 128.289 41.5829 129.117 41.6689C130.293 41.7909 131.464 41.9124 132.66 42.1187L136.77 32.5613L140.811 42.9617C141.338 43.0495 141.864 43.1395 142.391 43.2295C143.973 43.4997 145.554 43.7699 147.136 43.9808L140.003 25.112Z" fill="#D81F26"/>
</svg>
